PathFileType	4	(X/Y/Z)	C:\Users\WrightLab\Desktop\Jo\P1_boxCal29.trc
DataRate	CameraRate	NumFrames	NumMarkers	Units	OrigDataRate	OrigDataStartFrame	OrigNumFrames
100.00	100.00	      51	19	mm	100.00	1	      1153
Frame#	Time	Headset_Front			Headset_Back			Headset_Left			Headset_Right			Left_Shoulder			Right_Shoulder			Sternum			C7			Left Elbow			Right Elbow			Left Wrist			Right Wrist			Left ASIS			Right ASIS			S2			Left Knee			Right Knee			Left Ankle			Right Ankle			
		X1	Y1	Z1	X2	Y2	Z2	X3	Y3	Z3	X4	Y4	Z4	X5	Y5	Z5	X6	Y6	Z6	X7	Y7	Z7	X8	Y8	Z8	X9	Y9	Z9	X10	Y10	Z10	X11	Y11	Z11	X12	Y12	Z12	X13	Y13	Z13	X14	Y14	Z14	X15	Y15	Z15	X16	Y16	Z16	X17	Y17	Z17	X18	Y18	Z18	X19	Y19	Z19	

1	0.000																																																	-167.75464	499.74982	2222.97583							
2	0.010																																																	-167.72142	500.36603	2223.87451							
3	0.020																																																	-167.75484	500.41095	2223.94824							
4	0.030																																																	-168.00751	500.33530	2224.44287							
5	0.040																																																	-168.18674	500.23007	2224.82739							
6	0.050																																																	-168.52217	500.19696	2225.30835							
7	0.060																																																	-168.72150	500.02408	2225.57056							
8	0.070																																																	-168.91888	500.19867	2225.89282							
9	0.080																																																	-169.23575	500.80582	2226.28955							
10	0.090																																																	-169.59776	500.52792	2227.22217							
11	0.100																																																	-169.64201	500.48032	2227.64038							
12	0.110																																																	-169.73849	500.48398	2228.03687							
13	0.120																																																	-169.60811	500.90570	2228.83643							
14	0.130																																																	-169.24721	500.72195	2229.79541							
15	0.140																																																	-169.23508	500.81262	2229.76343							
16	0.150																																																	-169.13620	500.91745	2229.76367							
17	0.160																																																	-168.66916	501.39090	2230.54761							
18	0.170																																																	-168.07401	501.80020	2231.13257							
19	0.180																																																	-167.67725	501.91336	2231.30322							
20	0.190																																																	-167.39824	502.55286	2231.94556							
21	0.200																																																	-166.19640	502.79382	2233.36719							
22	0.210																																																	-165.94878	503.10690	2233.52954							
23	0.220																																																	-165.96422	503.26544	2233.53516							
24	0.230																																																	-165.91901	503.44037	2233.83594							
25	0.240																																																	-165.82584	503.67081	2233.90820							
26	0.250																																																	-165.30774	504.43448	2235.86890							
27	0.260																																																	-165.08174	504.84494	2236.75830							
28	0.270																																																	-165.06137	504.92294	2236.92529							
29	0.280																																																	-164.80853	505.37775	2237.91357							
30	0.290																																																	-164.78294	505.53973	2238.13428							
31	0.300																																																	-164.76515	505.70828	2238.33813							
32	0.310																																																	-164.81793	505.72876	2238.44312							
33	0.320																																																	-164.94250	505.74622	2238.66650							
34	0.330																																																	-165.27455	505.59512	2238.96729							
35	0.340																																																	-165.65590	505.51260	2239.21484							
36	0.350																																																	-165.74475	505.49057	2239.26831							
37	0.360																																																	-165.73839	505.40103	2239.21338							
38	0.370																																																	-165.64914	505.45853	2239.07324							
39	0.380																																																	-165.36194	505.40775	2238.91870							
40	0.390																																																	-165.36807	505.39203	2238.91235							
41	0.400																																																	-165.27144	505.40710	2238.86963							
42	0.410																																																	-165.33253	505.27704	2239.04712							
43	0.420																																																	-165.45042	505.29193	2239.25708							
44	0.430																																																	-165.71736	505.20328	2239.38184							
45	0.440																																																	-166.10352	505.15048	2240.07739							
46	0.450																																																	-166.28497	505.06860	2240.37231							
47	0.460																																																	-166.45261	505.13791	2240.60693							
48	0.470																																																	-166.52284	505.26419	2240.81885							
49	0.480																																																	-166.29533	505.31619	2241.80591							
50	0.490																																																	-166.28667	505.99469	2242.82666							
51	0.500																																																	-166.30765	506.17642	2242.75854							
